%TF.GenerationSoftware,KiCad,Pcbnew,8.0.5*%
%TF.CreationDate,2024-10-05T13:22:53-05:00*%
%TF.ProjectId,HackPad_Neko,4861636b-5061-4645-9f4e-656b6f2e6b69,rev?*%
%TF.SameCoordinates,Original*%
%TF.FileFunction,Soldermask,Bot*%
%TF.FilePolarity,Negative*%
%FSLAX46Y46*%
G04 Gerber Fmt 4.6, Leading zero omitted, Abs format (unit mm)*
G04 Created by KiCad (PCBNEW 8.0.5) date 2024-10-05 13:22:53*
%MOMM*%
%LPD*%
G01*
G04 APERTURE LIST*
%ADD10C,1.400000*%
%ADD11O,1.400000X1.400000*%
%ADD12C,2.200000*%
%ADD13C,1.700000*%
%ADD14C,4.000000*%
%ADD15R,1.700000X1.700000*%
%ADD16O,1.700000X1.700000*%
%ADD17R,1.600000X1.600000*%
%ADD18C,1.600000*%
%ADD19O,1.600000X1.600000*%
G04 APERTURE END LIST*
D10*
%TO.C,R2*%
X208000000Y-100080000D03*
D11*
X208000000Y-95000000D03*
%TD*%
D10*
%TO.C,R1*%
X204850000Y-100080000D03*
D11*
X204850000Y-95000000D03*
%TD*%
D12*
%TO.C,MX15*%
X153352500Y-121285000D03*
X159702500Y-118745000D03*
D13*
X162242500Y-123825000D03*
D14*
X157162500Y-123825000D03*
D13*
X152082500Y-123825000D03*
%TD*%
D12*
%TO.C,MX5*%
X115252500Y-83185000D03*
X121602500Y-80645000D03*
D13*
X124142500Y-85725000D03*
D14*
X119062500Y-85725000D03*
D13*
X113982500Y-85725000D03*
%TD*%
D12*
%TO.C,MX18*%
X134302500Y-140335000D03*
X140652500Y-137795000D03*
D13*
X143192500Y-142875000D03*
D14*
X138112500Y-142875000D03*
D13*
X133032500Y-142875000D03*
%TD*%
D12*
%TO.C,MX20*%
X172402500Y-140335000D03*
X178752500Y-137795000D03*
D13*
X181292500Y-142875000D03*
D14*
X176212500Y-142875000D03*
D13*
X171132500Y-142875000D03*
%TD*%
D12*
%TO.C,MX14*%
X134302500Y-121285000D03*
X140652500Y-118745000D03*
D13*
X143192500Y-123825000D03*
D14*
X138112500Y-123825000D03*
D13*
X133032500Y-123825000D03*
%TD*%
D12*
%TO.C,MX3*%
X153352500Y-64135000D03*
X159702500Y-61595000D03*
D13*
X162242500Y-66675000D03*
D14*
X157162500Y-66675000D03*
D13*
X152082500Y-66675000D03*
%TD*%
D12*
%TO.C,MX2*%
X134302500Y-64135000D03*
X140652500Y-61595000D03*
D13*
X143192500Y-66675000D03*
D14*
X138112500Y-66675000D03*
D13*
X133032500Y-66675000D03*
%TD*%
D12*
%TO.C,MX13*%
X115252500Y-121285000D03*
X121602500Y-118745000D03*
D13*
X124142500Y-123825000D03*
D14*
X119062500Y-123825000D03*
D13*
X113982500Y-123825000D03*
%TD*%
D12*
%TO.C,MX6*%
X134302500Y-83185000D03*
X140652500Y-80645000D03*
D13*
X143192500Y-85725000D03*
D14*
X138112500Y-85725000D03*
D13*
X133032500Y-85725000D03*
%TD*%
D12*
%TO.C,MX4*%
X172402500Y-64135000D03*
X178752500Y-61595000D03*
D13*
X181292500Y-66675000D03*
D14*
X176212500Y-66675000D03*
D13*
X171132500Y-66675000D03*
%TD*%
D12*
%TO.C,MX19*%
X153352500Y-140335000D03*
X159702500Y-137795000D03*
D13*
X162242500Y-142875000D03*
D14*
X157162500Y-142875000D03*
D13*
X152082500Y-142875000D03*
%TD*%
D12*
%TO.C,MX10*%
X134302500Y-102235000D03*
X140652500Y-99695000D03*
D13*
X143192500Y-104775000D03*
D14*
X138112500Y-104775000D03*
D13*
X133032500Y-104775000D03*
%TD*%
D12*
%TO.C,MX12*%
X172402500Y-102235000D03*
X178752500Y-99695000D03*
D13*
X181292500Y-104775000D03*
D14*
X176212500Y-104775000D03*
D13*
X171132500Y-104775000D03*
%TD*%
D12*
%TO.C,MX11*%
X153352500Y-102235000D03*
X159702500Y-99695000D03*
D13*
X162242500Y-104775000D03*
D14*
X157162500Y-104775000D03*
D13*
X152082500Y-104775000D03*
%TD*%
D15*
%TO.C,J1*%
X193833750Y-83343750D03*
D16*
X196373750Y-83343750D03*
X198913750Y-83343750D03*
X201453750Y-83343750D03*
%TD*%
D12*
%TO.C,MX16*%
X172402500Y-121285000D03*
X178752500Y-118745000D03*
D13*
X181292500Y-123825000D03*
D14*
X176212500Y-123825000D03*
D13*
X171132500Y-123825000D03*
%TD*%
D12*
%TO.C,MX7*%
X153352500Y-83185000D03*
X159702500Y-80645000D03*
D13*
X162242500Y-85725000D03*
D14*
X157162500Y-85725000D03*
D13*
X152082500Y-85725000D03*
%TD*%
D12*
%TO.C,MX17*%
X115252500Y-140335000D03*
X121602500Y-137795000D03*
D13*
X124142500Y-142875000D03*
D14*
X119062500Y-142875000D03*
D13*
X113982500Y-142875000D03*
%TD*%
D12*
%TO.C,MX8*%
X172402500Y-83185000D03*
X178752500Y-80645000D03*
D13*
X181292500Y-85725000D03*
D14*
X176212500Y-85725000D03*
D13*
X171132500Y-85725000D03*
%TD*%
D17*
%TO.C,U1*%
X190023750Y-56667500D03*
D18*
X190023750Y-59207500D03*
X190023750Y-61747500D03*
X190023750Y-64287500D03*
X190023750Y-66827500D03*
X190023750Y-69367500D03*
X190023750Y-71907500D03*
X205263750Y-71907500D03*
X205263750Y-69367500D03*
X205263750Y-66827500D03*
X205263750Y-64287500D03*
X205263750Y-61747500D03*
X205263750Y-59207500D03*
X205263750Y-56667500D03*
%TD*%
D12*
%TO.C,MX1*%
X115252500Y-64135000D03*
X121602500Y-61595000D03*
D13*
X124142500Y-66675000D03*
D14*
X119062500Y-66675000D03*
D13*
X113982500Y-66675000D03*
%TD*%
D12*
%TO.C,MX9*%
X115252500Y-102235000D03*
X121602500Y-99695000D03*
D13*
X124142500Y-104775000D03*
D14*
X119062500Y-104775000D03*
D13*
X113982500Y-104775000D03*
%TD*%
D17*
%TO.C,D10*%
X147637500Y-107632500D03*
D19*
X147637500Y-100012500D03*
%TD*%
D17*
%TO.C,D1*%
X128587500Y-69532500D03*
D19*
X128587500Y-61912500D03*
%TD*%
D17*
%TO.C,D19*%
X166687500Y-145732500D03*
D19*
X166687500Y-138112500D03*
%TD*%
D17*
%TO.C,D13*%
X128587500Y-126682500D03*
D19*
X128587500Y-119062500D03*
%TD*%
D17*
%TO.C,D18*%
X147637500Y-145732500D03*
D19*
X147637500Y-138112500D03*
%TD*%
D17*
%TO.C,D2*%
X147637500Y-69532500D03*
D19*
X147637500Y-61912500D03*
%TD*%
D17*
%TO.C,D11*%
X166687500Y-107632500D03*
D19*
X166687500Y-100012500D03*
%TD*%
D17*
%TO.C,D3*%
X166687500Y-69532500D03*
D19*
X166687500Y-61912500D03*
%TD*%
D17*
%TO.C,D17*%
X128587500Y-145732500D03*
D19*
X128587500Y-138112500D03*
%TD*%
D17*
%TO.C,D16*%
X185737500Y-126682500D03*
D19*
X185737500Y-119062500D03*
%TD*%
D17*
%TO.C,D9*%
X128587500Y-107632500D03*
D19*
X128587500Y-100012500D03*
%TD*%
D17*
%TO.C,D12*%
X185737500Y-107632500D03*
D19*
X185737500Y-100012500D03*
%TD*%
D17*
%TO.C,D6*%
X147637500Y-88582500D03*
D19*
X147637500Y-80962500D03*
%TD*%
D17*
%TO.C,D7*%
X166687500Y-88582500D03*
D19*
X166687500Y-80962500D03*
%TD*%
D17*
%TO.C,D14*%
X147637500Y-126682500D03*
D19*
X147637500Y-119062500D03*
%TD*%
D17*
%TO.C,D20*%
X185737500Y-145732500D03*
D19*
X185737500Y-138112500D03*
%TD*%
D17*
%TO.C,D4*%
X185737500Y-69532500D03*
D19*
X185737500Y-61912500D03*
%TD*%
D17*
%TO.C,D8*%
X185737500Y-88582500D03*
D19*
X185737500Y-80962500D03*
%TD*%
D17*
%TO.C,D15*%
X166687500Y-126682500D03*
D19*
X166687500Y-119062500D03*
%TD*%
D17*
%TO.C,D5*%
X128587500Y-88582500D03*
D19*
X128587500Y-80962500D03*
%TD*%
M02*
