%TF.GenerationSoftware,KiCad,Pcbnew,8.0.5*%
%TF.CreationDate,2024-10-04T21:57:20-05:00*%
%TF.ProjectId,HackPad_Neko,4861636b-5061-4645-9f4e-656b6f2e6b69,rev?*%
%TF.SameCoordinates,Original*%
%TF.FileFunction,Legend,Bot*%
%TF.FilePolarity,Positive*%
%FSLAX46Y46*%
G04 Gerber Fmt 4.6, Leading zero omitted, Abs format (unit mm)*
G04 Created by KiCad (PCBNEW 8.0.5) date 2024-10-04 21:57:20*
%MOMM*%
%LPD*%
G01*
G04 APERTURE LIST*
%ADD10C,0.150000*%
%ADD11C,0.120000*%
G04 APERTURE END LIST*
D10*
X150212319Y-102608214D02*
X149212319Y-102608214D01*
X149212319Y-102608214D02*
X149212319Y-102846309D01*
X149212319Y-102846309D02*
X149259938Y-102989166D01*
X149259938Y-102989166D02*
X149355176Y-103084404D01*
X149355176Y-103084404D02*
X149450414Y-103132023D01*
X149450414Y-103132023D02*
X149640890Y-103179642D01*
X149640890Y-103179642D02*
X149783747Y-103179642D01*
X149783747Y-103179642D02*
X149974223Y-103132023D01*
X149974223Y-103132023D02*
X150069461Y-103084404D01*
X150069461Y-103084404D02*
X150164700Y-102989166D01*
X150164700Y-102989166D02*
X150212319Y-102846309D01*
X150212319Y-102846309D02*
X150212319Y-102608214D01*
X150212319Y-104132023D02*
X150212319Y-103560595D01*
X150212319Y-103846309D02*
X149212319Y-103846309D01*
X149212319Y-103846309D02*
X149355176Y-103751071D01*
X149355176Y-103751071D02*
X149450414Y-103655833D01*
X149450414Y-103655833D02*
X149498033Y-103560595D01*
X149212319Y-104751071D02*
X149212319Y-104846309D01*
X149212319Y-104846309D02*
X149259938Y-104941547D01*
X149259938Y-104941547D02*
X149307557Y-104989166D01*
X149307557Y-104989166D02*
X149402795Y-105036785D01*
X149402795Y-105036785D02*
X149593271Y-105084404D01*
X149593271Y-105084404D02*
X149831366Y-105084404D01*
X149831366Y-105084404D02*
X150021842Y-105036785D01*
X150021842Y-105036785D02*
X150117080Y-104989166D01*
X150117080Y-104989166D02*
X150164700Y-104941547D01*
X150164700Y-104941547D02*
X150212319Y-104846309D01*
X150212319Y-104846309D02*
X150212319Y-104751071D01*
X150212319Y-104751071D02*
X150164700Y-104655833D01*
X150164700Y-104655833D02*
X150117080Y-104608214D01*
X150117080Y-104608214D02*
X150021842Y-104560595D01*
X150021842Y-104560595D02*
X149831366Y-104512976D01*
X149831366Y-104512976D02*
X149593271Y-104512976D01*
X149593271Y-104512976D02*
X149402795Y-104560595D01*
X149402795Y-104560595D02*
X149307557Y-104608214D01*
X149307557Y-104608214D02*
X149259938Y-104655833D01*
X149259938Y-104655833D02*
X149212319Y-104751071D01*
X149892319Y-107370595D02*
X148892319Y-107370595D01*
X149892319Y-107942023D02*
X149320890Y-107513452D01*
X148892319Y-107942023D02*
X149463747Y-107370595D01*
X131162319Y-64984405D02*
X130162319Y-64984405D01*
X130162319Y-64984405D02*
X130162319Y-65222500D01*
X130162319Y-65222500D02*
X130209938Y-65365357D01*
X130209938Y-65365357D02*
X130305176Y-65460595D01*
X130305176Y-65460595D02*
X130400414Y-65508214D01*
X130400414Y-65508214D02*
X130590890Y-65555833D01*
X130590890Y-65555833D02*
X130733747Y-65555833D01*
X130733747Y-65555833D02*
X130924223Y-65508214D01*
X130924223Y-65508214D02*
X131019461Y-65460595D01*
X131019461Y-65460595D02*
X131114700Y-65365357D01*
X131114700Y-65365357D02*
X131162319Y-65222500D01*
X131162319Y-65222500D02*
X131162319Y-64984405D01*
X131162319Y-66508214D02*
X131162319Y-65936786D01*
X131162319Y-66222500D02*
X130162319Y-66222500D01*
X130162319Y-66222500D02*
X130305176Y-66127262D01*
X130305176Y-66127262D02*
X130400414Y-66032024D01*
X130400414Y-66032024D02*
X130448033Y-65936786D01*
X130842319Y-69270595D02*
X129842319Y-69270595D01*
X130842319Y-69842023D02*
X130270890Y-69413452D01*
X129842319Y-69842023D02*
X130413747Y-69270595D01*
X169262319Y-140708214D02*
X168262319Y-140708214D01*
X168262319Y-140708214D02*
X168262319Y-140946309D01*
X168262319Y-140946309D02*
X168309938Y-141089166D01*
X168309938Y-141089166D02*
X168405176Y-141184404D01*
X168405176Y-141184404D02*
X168500414Y-141232023D01*
X168500414Y-141232023D02*
X168690890Y-141279642D01*
X168690890Y-141279642D02*
X168833747Y-141279642D01*
X168833747Y-141279642D02*
X169024223Y-141232023D01*
X169024223Y-141232023D02*
X169119461Y-141184404D01*
X169119461Y-141184404D02*
X169214700Y-141089166D01*
X169214700Y-141089166D02*
X169262319Y-140946309D01*
X169262319Y-140946309D02*
X169262319Y-140708214D01*
X169262319Y-142232023D02*
X169262319Y-141660595D01*
X169262319Y-141946309D02*
X168262319Y-141946309D01*
X168262319Y-141946309D02*
X168405176Y-141851071D01*
X168405176Y-141851071D02*
X168500414Y-141755833D01*
X168500414Y-141755833D02*
X168548033Y-141660595D01*
X169262319Y-142708214D02*
X169262319Y-142898690D01*
X169262319Y-142898690D02*
X169214700Y-142993928D01*
X169214700Y-142993928D02*
X169167080Y-143041547D01*
X169167080Y-143041547D02*
X169024223Y-143136785D01*
X169024223Y-143136785D02*
X168833747Y-143184404D01*
X168833747Y-143184404D02*
X168452795Y-143184404D01*
X168452795Y-143184404D02*
X168357557Y-143136785D01*
X168357557Y-143136785D02*
X168309938Y-143089166D01*
X168309938Y-143089166D02*
X168262319Y-142993928D01*
X168262319Y-142993928D02*
X168262319Y-142803452D01*
X168262319Y-142803452D02*
X168309938Y-142708214D01*
X168309938Y-142708214D02*
X168357557Y-142660595D01*
X168357557Y-142660595D02*
X168452795Y-142612976D01*
X168452795Y-142612976D02*
X168690890Y-142612976D01*
X168690890Y-142612976D02*
X168786128Y-142660595D01*
X168786128Y-142660595D02*
X168833747Y-142708214D01*
X168833747Y-142708214D02*
X168881366Y-142803452D01*
X168881366Y-142803452D02*
X168881366Y-142993928D01*
X168881366Y-142993928D02*
X168833747Y-143089166D01*
X168833747Y-143089166D02*
X168786128Y-143136785D01*
X168786128Y-143136785D02*
X168690890Y-143184404D01*
X168942319Y-145470595D02*
X167942319Y-145470595D01*
X168942319Y-146042023D02*
X168370890Y-145613452D01*
X167942319Y-146042023D02*
X168513747Y-145470595D01*
X131162319Y-121658214D02*
X130162319Y-121658214D01*
X130162319Y-121658214D02*
X130162319Y-121896309D01*
X130162319Y-121896309D02*
X130209938Y-122039166D01*
X130209938Y-122039166D02*
X130305176Y-122134404D01*
X130305176Y-122134404D02*
X130400414Y-122182023D01*
X130400414Y-122182023D02*
X130590890Y-122229642D01*
X130590890Y-122229642D02*
X130733747Y-122229642D01*
X130733747Y-122229642D02*
X130924223Y-122182023D01*
X130924223Y-122182023D02*
X131019461Y-122134404D01*
X131019461Y-122134404D02*
X131114700Y-122039166D01*
X131114700Y-122039166D02*
X131162319Y-121896309D01*
X131162319Y-121896309D02*
X131162319Y-121658214D01*
X131162319Y-123182023D02*
X131162319Y-122610595D01*
X131162319Y-122896309D02*
X130162319Y-122896309D01*
X130162319Y-122896309D02*
X130305176Y-122801071D01*
X130305176Y-122801071D02*
X130400414Y-122705833D01*
X130400414Y-122705833D02*
X130448033Y-122610595D01*
X130162319Y-123515357D02*
X130162319Y-124134404D01*
X130162319Y-124134404D02*
X130543271Y-123801071D01*
X130543271Y-123801071D02*
X130543271Y-123943928D01*
X130543271Y-123943928D02*
X130590890Y-124039166D01*
X130590890Y-124039166D02*
X130638509Y-124086785D01*
X130638509Y-124086785D02*
X130733747Y-124134404D01*
X130733747Y-124134404D02*
X130971842Y-124134404D01*
X130971842Y-124134404D02*
X131067080Y-124086785D01*
X131067080Y-124086785D02*
X131114700Y-124039166D01*
X131114700Y-124039166D02*
X131162319Y-123943928D01*
X131162319Y-123943928D02*
X131162319Y-123658214D01*
X131162319Y-123658214D02*
X131114700Y-123562976D01*
X131114700Y-123562976D02*
X131067080Y-123515357D01*
X130842319Y-126420595D02*
X129842319Y-126420595D01*
X130842319Y-126992023D02*
X130270890Y-126563452D01*
X129842319Y-126992023D02*
X130413747Y-126420595D01*
X150212319Y-140708214D02*
X149212319Y-140708214D01*
X149212319Y-140708214D02*
X149212319Y-140946309D01*
X149212319Y-140946309D02*
X149259938Y-141089166D01*
X149259938Y-141089166D02*
X149355176Y-141184404D01*
X149355176Y-141184404D02*
X149450414Y-141232023D01*
X149450414Y-141232023D02*
X149640890Y-141279642D01*
X149640890Y-141279642D02*
X149783747Y-141279642D01*
X149783747Y-141279642D02*
X149974223Y-141232023D01*
X149974223Y-141232023D02*
X150069461Y-141184404D01*
X150069461Y-141184404D02*
X150164700Y-141089166D01*
X150164700Y-141089166D02*
X150212319Y-140946309D01*
X150212319Y-140946309D02*
X150212319Y-140708214D01*
X150212319Y-142232023D02*
X150212319Y-141660595D01*
X150212319Y-141946309D02*
X149212319Y-141946309D01*
X149212319Y-141946309D02*
X149355176Y-141851071D01*
X149355176Y-141851071D02*
X149450414Y-141755833D01*
X149450414Y-141755833D02*
X149498033Y-141660595D01*
X149640890Y-142803452D02*
X149593271Y-142708214D01*
X149593271Y-142708214D02*
X149545652Y-142660595D01*
X149545652Y-142660595D02*
X149450414Y-142612976D01*
X149450414Y-142612976D02*
X149402795Y-142612976D01*
X149402795Y-142612976D02*
X149307557Y-142660595D01*
X149307557Y-142660595D02*
X149259938Y-142708214D01*
X149259938Y-142708214D02*
X149212319Y-142803452D01*
X149212319Y-142803452D02*
X149212319Y-142993928D01*
X149212319Y-142993928D02*
X149259938Y-143089166D01*
X149259938Y-143089166D02*
X149307557Y-143136785D01*
X149307557Y-143136785D02*
X149402795Y-143184404D01*
X149402795Y-143184404D02*
X149450414Y-143184404D01*
X149450414Y-143184404D02*
X149545652Y-143136785D01*
X149545652Y-143136785D02*
X149593271Y-143089166D01*
X149593271Y-143089166D02*
X149640890Y-142993928D01*
X149640890Y-142993928D02*
X149640890Y-142803452D01*
X149640890Y-142803452D02*
X149688509Y-142708214D01*
X149688509Y-142708214D02*
X149736128Y-142660595D01*
X149736128Y-142660595D02*
X149831366Y-142612976D01*
X149831366Y-142612976D02*
X150021842Y-142612976D01*
X150021842Y-142612976D02*
X150117080Y-142660595D01*
X150117080Y-142660595D02*
X150164700Y-142708214D01*
X150164700Y-142708214D02*
X150212319Y-142803452D01*
X150212319Y-142803452D02*
X150212319Y-142993928D01*
X150212319Y-142993928D02*
X150164700Y-143089166D01*
X150164700Y-143089166D02*
X150117080Y-143136785D01*
X150117080Y-143136785D02*
X150021842Y-143184404D01*
X150021842Y-143184404D02*
X149831366Y-143184404D01*
X149831366Y-143184404D02*
X149736128Y-143136785D01*
X149736128Y-143136785D02*
X149688509Y-143089166D01*
X149688509Y-143089166D02*
X149640890Y-142993928D01*
X149892319Y-145470595D02*
X148892319Y-145470595D01*
X149892319Y-146042023D02*
X149320890Y-145613452D01*
X148892319Y-146042023D02*
X149463747Y-145470595D01*
X150212319Y-64984405D02*
X149212319Y-64984405D01*
X149212319Y-64984405D02*
X149212319Y-65222500D01*
X149212319Y-65222500D02*
X149259938Y-65365357D01*
X149259938Y-65365357D02*
X149355176Y-65460595D01*
X149355176Y-65460595D02*
X149450414Y-65508214D01*
X149450414Y-65508214D02*
X149640890Y-65555833D01*
X149640890Y-65555833D02*
X149783747Y-65555833D01*
X149783747Y-65555833D02*
X149974223Y-65508214D01*
X149974223Y-65508214D02*
X150069461Y-65460595D01*
X150069461Y-65460595D02*
X150164700Y-65365357D01*
X150164700Y-65365357D02*
X150212319Y-65222500D01*
X150212319Y-65222500D02*
X150212319Y-64984405D01*
X149307557Y-65936786D02*
X149259938Y-65984405D01*
X149259938Y-65984405D02*
X149212319Y-66079643D01*
X149212319Y-66079643D02*
X149212319Y-66317738D01*
X149212319Y-66317738D02*
X149259938Y-66412976D01*
X149259938Y-66412976D02*
X149307557Y-66460595D01*
X149307557Y-66460595D02*
X149402795Y-66508214D01*
X149402795Y-66508214D02*
X149498033Y-66508214D01*
X149498033Y-66508214D02*
X149640890Y-66460595D01*
X149640890Y-66460595D02*
X150212319Y-65889167D01*
X150212319Y-65889167D02*
X150212319Y-66508214D01*
X149892319Y-69270595D02*
X148892319Y-69270595D01*
X149892319Y-69842023D02*
X149320890Y-69413452D01*
X148892319Y-69842023D02*
X149463747Y-69270595D01*
X169262319Y-102608214D02*
X168262319Y-102608214D01*
X168262319Y-102608214D02*
X168262319Y-102846309D01*
X168262319Y-102846309D02*
X168309938Y-102989166D01*
X168309938Y-102989166D02*
X168405176Y-103084404D01*
X168405176Y-103084404D02*
X168500414Y-103132023D01*
X168500414Y-103132023D02*
X168690890Y-103179642D01*
X168690890Y-103179642D02*
X168833747Y-103179642D01*
X168833747Y-103179642D02*
X169024223Y-103132023D01*
X169024223Y-103132023D02*
X169119461Y-103084404D01*
X169119461Y-103084404D02*
X169214700Y-102989166D01*
X169214700Y-102989166D02*
X169262319Y-102846309D01*
X169262319Y-102846309D02*
X169262319Y-102608214D01*
X169262319Y-104132023D02*
X169262319Y-103560595D01*
X169262319Y-103846309D02*
X168262319Y-103846309D01*
X168262319Y-103846309D02*
X168405176Y-103751071D01*
X168405176Y-103751071D02*
X168500414Y-103655833D01*
X168500414Y-103655833D02*
X168548033Y-103560595D01*
X169262319Y-105084404D02*
X169262319Y-104512976D01*
X169262319Y-104798690D02*
X168262319Y-104798690D01*
X168262319Y-104798690D02*
X168405176Y-104703452D01*
X168405176Y-104703452D02*
X168500414Y-104608214D01*
X168500414Y-104608214D02*
X168548033Y-104512976D01*
X168942319Y-107370595D02*
X167942319Y-107370595D01*
X168942319Y-107942023D02*
X168370890Y-107513452D01*
X167942319Y-107942023D02*
X168513747Y-107370595D01*
X169262319Y-64984405D02*
X168262319Y-64984405D01*
X168262319Y-64984405D02*
X168262319Y-65222500D01*
X168262319Y-65222500D02*
X168309938Y-65365357D01*
X168309938Y-65365357D02*
X168405176Y-65460595D01*
X168405176Y-65460595D02*
X168500414Y-65508214D01*
X168500414Y-65508214D02*
X168690890Y-65555833D01*
X168690890Y-65555833D02*
X168833747Y-65555833D01*
X168833747Y-65555833D02*
X169024223Y-65508214D01*
X169024223Y-65508214D02*
X169119461Y-65460595D01*
X169119461Y-65460595D02*
X169214700Y-65365357D01*
X169214700Y-65365357D02*
X169262319Y-65222500D01*
X169262319Y-65222500D02*
X169262319Y-64984405D01*
X168262319Y-65889167D02*
X168262319Y-66508214D01*
X168262319Y-66508214D02*
X168643271Y-66174881D01*
X168643271Y-66174881D02*
X168643271Y-66317738D01*
X168643271Y-66317738D02*
X168690890Y-66412976D01*
X168690890Y-66412976D02*
X168738509Y-66460595D01*
X168738509Y-66460595D02*
X168833747Y-66508214D01*
X168833747Y-66508214D02*
X169071842Y-66508214D01*
X169071842Y-66508214D02*
X169167080Y-66460595D01*
X169167080Y-66460595D02*
X169214700Y-66412976D01*
X169214700Y-66412976D02*
X169262319Y-66317738D01*
X169262319Y-66317738D02*
X169262319Y-66032024D01*
X169262319Y-66032024D02*
X169214700Y-65936786D01*
X169214700Y-65936786D02*
X169167080Y-65889167D01*
X168942319Y-69270595D02*
X167942319Y-69270595D01*
X168942319Y-69842023D02*
X168370890Y-69413452D01*
X167942319Y-69842023D02*
X168513747Y-69270595D01*
X131162319Y-140708214D02*
X130162319Y-140708214D01*
X130162319Y-140708214D02*
X130162319Y-140946309D01*
X130162319Y-140946309D02*
X130209938Y-141089166D01*
X130209938Y-141089166D02*
X130305176Y-141184404D01*
X130305176Y-141184404D02*
X130400414Y-141232023D01*
X130400414Y-141232023D02*
X130590890Y-141279642D01*
X130590890Y-141279642D02*
X130733747Y-141279642D01*
X130733747Y-141279642D02*
X130924223Y-141232023D01*
X130924223Y-141232023D02*
X131019461Y-141184404D01*
X131019461Y-141184404D02*
X131114700Y-141089166D01*
X131114700Y-141089166D02*
X131162319Y-140946309D01*
X131162319Y-140946309D02*
X131162319Y-140708214D01*
X131162319Y-142232023D02*
X131162319Y-141660595D01*
X131162319Y-141946309D02*
X130162319Y-141946309D01*
X130162319Y-141946309D02*
X130305176Y-141851071D01*
X130305176Y-141851071D02*
X130400414Y-141755833D01*
X130400414Y-141755833D02*
X130448033Y-141660595D01*
X130162319Y-142565357D02*
X130162319Y-143232023D01*
X130162319Y-143232023D02*
X131162319Y-142803452D01*
X130842319Y-145470595D02*
X129842319Y-145470595D01*
X130842319Y-146042023D02*
X130270890Y-145613452D01*
X129842319Y-146042023D02*
X130413747Y-145470595D01*
X188312319Y-121658214D02*
X187312319Y-121658214D01*
X187312319Y-121658214D02*
X187312319Y-121896309D01*
X187312319Y-121896309D02*
X187359938Y-122039166D01*
X187359938Y-122039166D02*
X187455176Y-122134404D01*
X187455176Y-122134404D02*
X187550414Y-122182023D01*
X187550414Y-122182023D02*
X187740890Y-122229642D01*
X187740890Y-122229642D02*
X187883747Y-122229642D01*
X187883747Y-122229642D02*
X188074223Y-122182023D01*
X188074223Y-122182023D02*
X188169461Y-122134404D01*
X188169461Y-122134404D02*
X188264700Y-122039166D01*
X188264700Y-122039166D02*
X188312319Y-121896309D01*
X188312319Y-121896309D02*
X188312319Y-121658214D01*
X188312319Y-123182023D02*
X188312319Y-122610595D01*
X188312319Y-122896309D02*
X187312319Y-122896309D01*
X187312319Y-122896309D02*
X187455176Y-122801071D01*
X187455176Y-122801071D02*
X187550414Y-122705833D01*
X187550414Y-122705833D02*
X187598033Y-122610595D01*
X187312319Y-124039166D02*
X187312319Y-123848690D01*
X187312319Y-123848690D02*
X187359938Y-123753452D01*
X187359938Y-123753452D02*
X187407557Y-123705833D01*
X187407557Y-123705833D02*
X187550414Y-123610595D01*
X187550414Y-123610595D02*
X187740890Y-123562976D01*
X187740890Y-123562976D02*
X188121842Y-123562976D01*
X188121842Y-123562976D02*
X188217080Y-123610595D01*
X188217080Y-123610595D02*
X188264700Y-123658214D01*
X188264700Y-123658214D02*
X188312319Y-123753452D01*
X188312319Y-123753452D02*
X188312319Y-123943928D01*
X188312319Y-123943928D02*
X188264700Y-124039166D01*
X188264700Y-124039166D02*
X188217080Y-124086785D01*
X188217080Y-124086785D02*
X188121842Y-124134404D01*
X188121842Y-124134404D02*
X187883747Y-124134404D01*
X187883747Y-124134404D02*
X187788509Y-124086785D01*
X187788509Y-124086785D02*
X187740890Y-124039166D01*
X187740890Y-124039166D02*
X187693271Y-123943928D01*
X187693271Y-123943928D02*
X187693271Y-123753452D01*
X187693271Y-123753452D02*
X187740890Y-123658214D01*
X187740890Y-123658214D02*
X187788509Y-123610595D01*
X187788509Y-123610595D02*
X187883747Y-123562976D01*
X187992319Y-126420595D02*
X186992319Y-126420595D01*
X187992319Y-126992023D02*
X187420890Y-126563452D01*
X186992319Y-126992023D02*
X187563747Y-126420595D01*
X131162319Y-103084405D02*
X130162319Y-103084405D01*
X130162319Y-103084405D02*
X130162319Y-103322500D01*
X130162319Y-103322500D02*
X130209938Y-103465357D01*
X130209938Y-103465357D02*
X130305176Y-103560595D01*
X130305176Y-103560595D02*
X130400414Y-103608214D01*
X130400414Y-103608214D02*
X130590890Y-103655833D01*
X130590890Y-103655833D02*
X130733747Y-103655833D01*
X130733747Y-103655833D02*
X130924223Y-103608214D01*
X130924223Y-103608214D02*
X131019461Y-103560595D01*
X131019461Y-103560595D02*
X131114700Y-103465357D01*
X131114700Y-103465357D02*
X131162319Y-103322500D01*
X131162319Y-103322500D02*
X131162319Y-103084405D01*
X131162319Y-104132024D02*
X131162319Y-104322500D01*
X131162319Y-104322500D02*
X131114700Y-104417738D01*
X131114700Y-104417738D02*
X131067080Y-104465357D01*
X131067080Y-104465357D02*
X130924223Y-104560595D01*
X130924223Y-104560595D02*
X130733747Y-104608214D01*
X130733747Y-104608214D02*
X130352795Y-104608214D01*
X130352795Y-104608214D02*
X130257557Y-104560595D01*
X130257557Y-104560595D02*
X130209938Y-104512976D01*
X130209938Y-104512976D02*
X130162319Y-104417738D01*
X130162319Y-104417738D02*
X130162319Y-104227262D01*
X130162319Y-104227262D02*
X130209938Y-104132024D01*
X130209938Y-104132024D02*
X130257557Y-104084405D01*
X130257557Y-104084405D02*
X130352795Y-104036786D01*
X130352795Y-104036786D02*
X130590890Y-104036786D01*
X130590890Y-104036786D02*
X130686128Y-104084405D01*
X130686128Y-104084405D02*
X130733747Y-104132024D01*
X130733747Y-104132024D02*
X130781366Y-104227262D01*
X130781366Y-104227262D02*
X130781366Y-104417738D01*
X130781366Y-104417738D02*
X130733747Y-104512976D01*
X130733747Y-104512976D02*
X130686128Y-104560595D01*
X130686128Y-104560595D02*
X130590890Y-104608214D01*
X130842319Y-107370595D02*
X129842319Y-107370595D01*
X130842319Y-107942023D02*
X130270890Y-107513452D01*
X129842319Y-107942023D02*
X130413747Y-107370595D01*
X188312319Y-102608214D02*
X187312319Y-102608214D01*
X187312319Y-102608214D02*
X187312319Y-102846309D01*
X187312319Y-102846309D02*
X187359938Y-102989166D01*
X187359938Y-102989166D02*
X187455176Y-103084404D01*
X187455176Y-103084404D02*
X187550414Y-103132023D01*
X187550414Y-103132023D02*
X187740890Y-103179642D01*
X187740890Y-103179642D02*
X187883747Y-103179642D01*
X187883747Y-103179642D02*
X188074223Y-103132023D01*
X188074223Y-103132023D02*
X188169461Y-103084404D01*
X188169461Y-103084404D02*
X188264700Y-102989166D01*
X188264700Y-102989166D02*
X188312319Y-102846309D01*
X188312319Y-102846309D02*
X188312319Y-102608214D01*
X188312319Y-104132023D02*
X188312319Y-103560595D01*
X188312319Y-103846309D02*
X187312319Y-103846309D01*
X187312319Y-103846309D02*
X187455176Y-103751071D01*
X187455176Y-103751071D02*
X187550414Y-103655833D01*
X187550414Y-103655833D02*
X187598033Y-103560595D01*
X187407557Y-104512976D02*
X187359938Y-104560595D01*
X187359938Y-104560595D02*
X187312319Y-104655833D01*
X187312319Y-104655833D02*
X187312319Y-104893928D01*
X187312319Y-104893928D02*
X187359938Y-104989166D01*
X187359938Y-104989166D02*
X187407557Y-105036785D01*
X187407557Y-105036785D02*
X187502795Y-105084404D01*
X187502795Y-105084404D02*
X187598033Y-105084404D01*
X187598033Y-105084404D02*
X187740890Y-105036785D01*
X187740890Y-105036785D02*
X188312319Y-104465357D01*
X188312319Y-104465357D02*
X188312319Y-105084404D01*
X187992319Y-107370595D02*
X186992319Y-107370595D01*
X187992319Y-107942023D02*
X187420890Y-107513452D01*
X186992319Y-107942023D02*
X187563747Y-107370595D01*
X150212319Y-84034405D02*
X149212319Y-84034405D01*
X149212319Y-84034405D02*
X149212319Y-84272500D01*
X149212319Y-84272500D02*
X149259938Y-84415357D01*
X149259938Y-84415357D02*
X149355176Y-84510595D01*
X149355176Y-84510595D02*
X149450414Y-84558214D01*
X149450414Y-84558214D02*
X149640890Y-84605833D01*
X149640890Y-84605833D02*
X149783747Y-84605833D01*
X149783747Y-84605833D02*
X149974223Y-84558214D01*
X149974223Y-84558214D02*
X150069461Y-84510595D01*
X150069461Y-84510595D02*
X150164700Y-84415357D01*
X150164700Y-84415357D02*
X150212319Y-84272500D01*
X150212319Y-84272500D02*
X150212319Y-84034405D01*
X149212319Y-85462976D02*
X149212319Y-85272500D01*
X149212319Y-85272500D02*
X149259938Y-85177262D01*
X149259938Y-85177262D02*
X149307557Y-85129643D01*
X149307557Y-85129643D02*
X149450414Y-85034405D01*
X149450414Y-85034405D02*
X149640890Y-84986786D01*
X149640890Y-84986786D02*
X150021842Y-84986786D01*
X150021842Y-84986786D02*
X150117080Y-85034405D01*
X150117080Y-85034405D02*
X150164700Y-85082024D01*
X150164700Y-85082024D02*
X150212319Y-85177262D01*
X150212319Y-85177262D02*
X150212319Y-85367738D01*
X150212319Y-85367738D02*
X150164700Y-85462976D01*
X150164700Y-85462976D02*
X150117080Y-85510595D01*
X150117080Y-85510595D02*
X150021842Y-85558214D01*
X150021842Y-85558214D02*
X149783747Y-85558214D01*
X149783747Y-85558214D02*
X149688509Y-85510595D01*
X149688509Y-85510595D02*
X149640890Y-85462976D01*
X149640890Y-85462976D02*
X149593271Y-85367738D01*
X149593271Y-85367738D02*
X149593271Y-85177262D01*
X149593271Y-85177262D02*
X149640890Y-85082024D01*
X149640890Y-85082024D02*
X149688509Y-85034405D01*
X149688509Y-85034405D02*
X149783747Y-84986786D01*
X149892319Y-88320595D02*
X148892319Y-88320595D01*
X149892319Y-88892023D02*
X149320890Y-88463452D01*
X148892319Y-88892023D02*
X149463747Y-88320595D01*
X169262319Y-84034405D02*
X168262319Y-84034405D01*
X168262319Y-84034405D02*
X168262319Y-84272500D01*
X168262319Y-84272500D02*
X168309938Y-84415357D01*
X168309938Y-84415357D02*
X168405176Y-84510595D01*
X168405176Y-84510595D02*
X168500414Y-84558214D01*
X168500414Y-84558214D02*
X168690890Y-84605833D01*
X168690890Y-84605833D02*
X168833747Y-84605833D01*
X168833747Y-84605833D02*
X169024223Y-84558214D01*
X169024223Y-84558214D02*
X169119461Y-84510595D01*
X169119461Y-84510595D02*
X169214700Y-84415357D01*
X169214700Y-84415357D02*
X169262319Y-84272500D01*
X169262319Y-84272500D02*
X169262319Y-84034405D01*
X168262319Y-84939167D02*
X168262319Y-85605833D01*
X168262319Y-85605833D02*
X169262319Y-85177262D01*
X168942319Y-88320595D02*
X167942319Y-88320595D01*
X168942319Y-88892023D02*
X168370890Y-88463452D01*
X167942319Y-88892023D02*
X168513747Y-88320595D01*
X150212319Y-121658214D02*
X149212319Y-121658214D01*
X149212319Y-121658214D02*
X149212319Y-121896309D01*
X149212319Y-121896309D02*
X149259938Y-122039166D01*
X149259938Y-122039166D02*
X149355176Y-122134404D01*
X149355176Y-122134404D02*
X149450414Y-122182023D01*
X149450414Y-122182023D02*
X149640890Y-122229642D01*
X149640890Y-122229642D02*
X149783747Y-122229642D01*
X149783747Y-122229642D02*
X149974223Y-122182023D01*
X149974223Y-122182023D02*
X150069461Y-122134404D01*
X150069461Y-122134404D02*
X150164700Y-122039166D01*
X150164700Y-122039166D02*
X150212319Y-121896309D01*
X150212319Y-121896309D02*
X150212319Y-121658214D01*
X150212319Y-123182023D02*
X150212319Y-122610595D01*
X150212319Y-122896309D02*
X149212319Y-122896309D01*
X149212319Y-122896309D02*
X149355176Y-122801071D01*
X149355176Y-122801071D02*
X149450414Y-122705833D01*
X149450414Y-122705833D02*
X149498033Y-122610595D01*
X149545652Y-124039166D02*
X150212319Y-124039166D01*
X149164700Y-123801071D02*
X149878985Y-123562976D01*
X149878985Y-123562976D02*
X149878985Y-124182023D01*
X149892319Y-126420595D02*
X148892319Y-126420595D01*
X149892319Y-126992023D02*
X149320890Y-126563452D01*
X148892319Y-126992023D02*
X149463747Y-126420595D01*
X188312319Y-140708214D02*
X187312319Y-140708214D01*
X187312319Y-140708214D02*
X187312319Y-140946309D01*
X187312319Y-140946309D02*
X187359938Y-141089166D01*
X187359938Y-141089166D02*
X187455176Y-141184404D01*
X187455176Y-141184404D02*
X187550414Y-141232023D01*
X187550414Y-141232023D02*
X187740890Y-141279642D01*
X187740890Y-141279642D02*
X187883747Y-141279642D01*
X187883747Y-141279642D02*
X188074223Y-141232023D01*
X188074223Y-141232023D02*
X188169461Y-141184404D01*
X188169461Y-141184404D02*
X188264700Y-141089166D01*
X188264700Y-141089166D02*
X188312319Y-140946309D01*
X188312319Y-140946309D02*
X188312319Y-140708214D01*
X187407557Y-141660595D02*
X187359938Y-141708214D01*
X187359938Y-141708214D02*
X187312319Y-141803452D01*
X187312319Y-141803452D02*
X187312319Y-142041547D01*
X187312319Y-142041547D02*
X187359938Y-142136785D01*
X187359938Y-142136785D02*
X187407557Y-142184404D01*
X187407557Y-142184404D02*
X187502795Y-142232023D01*
X187502795Y-142232023D02*
X187598033Y-142232023D01*
X187598033Y-142232023D02*
X187740890Y-142184404D01*
X187740890Y-142184404D02*
X188312319Y-141612976D01*
X188312319Y-141612976D02*
X188312319Y-142232023D01*
X187312319Y-142851071D02*
X187312319Y-142946309D01*
X187312319Y-142946309D02*
X187359938Y-143041547D01*
X187359938Y-143041547D02*
X187407557Y-143089166D01*
X187407557Y-143089166D02*
X187502795Y-143136785D01*
X187502795Y-143136785D02*
X187693271Y-143184404D01*
X187693271Y-143184404D02*
X187931366Y-143184404D01*
X187931366Y-143184404D02*
X188121842Y-143136785D01*
X188121842Y-143136785D02*
X188217080Y-143089166D01*
X188217080Y-143089166D02*
X188264700Y-143041547D01*
X188264700Y-143041547D02*
X188312319Y-142946309D01*
X188312319Y-142946309D02*
X188312319Y-142851071D01*
X188312319Y-142851071D02*
X188264700Y-142755833D01*
X188264700Y-142755833D02*
X188217080Y-142708214D01*
X188217080Y-142708214D02*
X188121842Y-142660595D01*
X188121842Y-142660595D02*
X187931366Y-142612976D01*
X187931366Y-142612976D02*
X187693271Y-142612976D01*
X187693271Y-142612976D02*
X187502795Y-142660595D01*
X187502795Y-142660595D02*
X187407557Y-142708214D01*
X187407557Y-142708214D02*
X187359938Y-142755833D01*
X187359938Y-142755833D02*
X187312319Y-142851071D01*
X187992319Y-145470595D02*
X186992319Y-145470595D01*
X187992319Y-146042023D02*
X187420890Y-145613452D01*
X186992319Y-146042023D02*
X187563747Y-145470595D01*
X187992319Y-69270595D02*
X186992319Y-69270595D01*
X187992319Y-69842023D02*
X187420890Y-69413452D01*
X186992319Y-69842023D02*
X187563747Y-69270595D01*
X188312319Y-84034405D02*
X187312319Y-84034405D01*
X187312319Y-84034405D02*
X187312319Y-84272500D01*
X187312319Y-84272500D02*
X187359938Y-84415357D01*
X187359938Y-84415357D02*
X187455176Y-84510595D01*
X187455176Y-84510595D02*
X187550414Y-84558214D01*
X187550414Y-84558214D02*
X187740890Y-84605833D01*
X187740890Y-84605833D02*
X187883747Y-84605833D01*
X187883747Y-84605833D02*
X188074223Y-84558214D01*
X188074223Y-84558214D02*
X188169461Y-84510595D01*
X188169461Y-84510595D02*
X188264700Y-84415357D01*
X188264700Y-84415357D02*
X188312319Y-84272500D01*
X188312319Y-84272500D02*
X188312319Y-84034405D01*
X187740890Y-85177262D02*
X187693271Y-85082024D01*
X187693271Y-85082024D02*
X187645652Y-85034405D01*
X187645652Y-85034405D02*
X187550414Y-84986786D01*
X187550414Y-84986786D02*
X187502795Y-84986786D01*
X187502795Y-84986786D02*
X187407557Y-85034405D01*
X187407557Y-85034405D02*
X187359938Y-85082024D01*
X187359938Y-85082024D02*
X187312319Y-85177262D01*
X187312319Y-85177262D02*
X187312319Y-85367738D01*
X187312319Y-85367738D02*
X187359938Y-85462976D01*
X187359938Y-85462976D02*
X187407557Y-85510595D01*
X187407557Y-85510595D02*
X187502795Y-85558214D01*
X187502795Y-85558214D02*
X187550414Y-85558214D01*
X187550414Y-85558214D02*
X187645652Y-85510595D01*
X187645652Y-85510595D02*
X187693271Y-85462976D01*
X187693271Y-85462976D02*
X187740890Y-85367738D01*
X187740890Y-85367738D02*
X187740890Y-85177262D01*
X187740890Y-85177262D02*
X187788509Y-85082024D01*
X187788509Y-85082024D02*
X187836128Y-85034405D01*
X187836128Y-85034405D02*
X187931366Y-84986786D01*
X187931366Y-84986786D02*
X188121842Y-84986786D01*
X188121842Y-84986786D02*
X188217080Y-85034405D01*
X188217080Y-85034405D02*
X188264700Y-85082024D01*
X188264700Y-85082024D02*
X188312319Y-85177262D01*
X188312319Y-85177262D02*
X188312319Y-85367738D01*
X188312319Y-85367738D02*
X188264700Y-85462976D01*
X188264700Y-85462976D02*
X188217080Y-85510595D01*
X188217080Y-85510595D02*
X188121842Y-85558214D01*
X188121842Y-85558214D02*
X187931366Y-85558214D01*
X187931366Y-85558214D02*
X187836128Y-85510595D01*
X187836128Y-85510595D02*
X187788509Y-85462976D01*
X187788509Y-85462976D02*
X187740890Y-85367738D01*
X187992319Y-88320595D02*
X186992319Y-88320595D01*
X187992319Y-88892023D02*
X187420890Y-88463452D01*
X186992319Y-88892023D02*
X187563747Y-88320595D01*
X169262319Y-121658214D02*
X168262319Y-121658214D01*
X168262319Y-121658214D02*
X168262319Y-121896309D01*
X168262319Y-121896309D02*
X168309938Y-122039166D01*
X168309938Y-122039166D02*
X168405176Y-122134404D01*
X168405176Y-122134404D02*
X168500414Y-122182023D01*
X168500414Y-122182023D02*
X168690890Y-122229642D01*
X168690890Y-122229642D02*
X168833747Y-122229642D01*
X168833747Y-122229642D02*
X169024223Y-122182023D01*
X169024223Y-122182023D02*
X169119461Y-122134404D01*
X169119461Y-122134404D02*
X169214700Y-122039166D01*
X169214700Y-122039166D02*
X169262319Y-121896309D01*
X169262319Y-121896309D02*
X169262319Y-121658214D01*
X169262319Y-123182023D02*
X169262319Y-122610595D01*
X169262319Y-122896309D02*
X168262319Y-122896309D01*
X168262319Y-122896309D02*
X168405176Y-122801071D01*
X168405176Y-122801071D02*
X168500414Y-122705833D01*
X168500414Y-122705833D02*
X168548033Y-122610595D01*
X168262319Y-124086785D02*
X168262319Y-123610595D01*
X168262319Y-123610595D02*
X168738509Y-123562976D01*
X168738509Y-123562976D02*
X168690890Y-123610595D01*
X168690890Y-123610595D02*
X168643271Y-123705833D01*
X168643271Y-123705833D02*
X168643271Y-123943928D01*
X168643271Y-123943928D02*
X168690890Y-124039166D01*
X168690890Y-124039166D02*
X168738509Y-124086785D01*
X168738509Y-124086785D02*
X168833747Y-124134404D01*
X168833747Y-124134404D02*
X169071842Y-124134404D01*
X169071842Y-124134404D02*
X169167080Y-124086785D01*
X169167080Y-124086785D02*
X169214700Y-124039166D01*
X169214700Y-124039166D02*
X169262319Y-123943928D01*
X169262319Y-123943928D02*
X169262319Y-123705833D01*
X169262319Y-123705833D02*
X169214700Y-123610595D01*
X169214700Y-123610595D02*
X169167080Y-123562976D01*
X168942319Y-126420595D02*
X167942319Y-126420595D01*
X168942319Y-126992023D02*
X168370890Y-126563452D01*
X167942319Y-126992023D02*
X168513747Y-126420595D01*
X131162319Y-84034405D02*
X130162319Y-84034405D01*
X130162319Y-84034405D02*
X130162319Y-84272500D01*
X130162319Y-84272500D02*
X130209938Y-84415357D01*
X130209938Y-84415357D02*
X130305176Y-84510595D01*
X130305176Y-84510595D02*
X130400414Y-84558214D01*
X130400414Y-84558214D02*
X130590890Y-84605833D01*
X130590890Y-84605833D02*
X130733747Y-84605833D01*
X130733747Y-84605833D02*
X130924223Y-84558214D01*
X130924223Y-84558214D02*
X131019461Y-84510595D01*
X131019461Y-84510595D02*
X131114700Y-84415357D01*
X131114700Y-84415357D02*
X131162319Y-84272500D01*
X131162319Y-84272500D02*
X131162319Y-84034405D01*
X130162319Y-85510595D02*
X130162319Y-85034405D01*
X130162319Y-85034405D02*
X130638509Y-84986786D01*
X130638509Y-84986786D02*
X130590890Y-85034405D01*
X130590890Y-85034405D02*
X130543271Y-85129643D01*
X130543271Y-85129643D02*
X130543271Y-85367738D01*
X130543271Y-85367738D02*
X130590890Y-85462976D01*
X130590890Y-85462976D02*
X130638509Y-85510595D01*
X130638509Y-85510595D02*
X130733747Y-85558214D01*
X130733747Y-85558214D02*
X130971842Y-85558214D01*
X130971842Y-85558214D02*
X131067080Y-85510595D01*
X131067080Y-85510595D02*
X131114700Y-85462976D01*
X131114700Y-85462976D02*
X131162319Y-85367738D01*
X131162319Y-85367738D02*
X131162319Y-85129643D01*
X131162319Y-85129643D02*
X131114700Y-85034405D01*
X131114700Y-85034405D02*
X131067080Y-84986786D01*
X130842319Y-88320595D02*
X129842319Y-88320595D01*
X130842319Y-88892023D02*
X130270890Y-88463452D01*
X129842319Y-88892023D02*
X130413747Y-88320595D01*
D11*
%TO.C,D10*%
X146517500Y-101702500D02*
X146517500Y-105942500D01*
X146517500Y-105102500D02*
X148757500Y-105102500D01*
X146517500Y-105222500D02*
X148757500Y-105222500D01*
X146517500Y-105342500D02*
X148757500Y-105342500D01*
X146517500Y-105942500D02*
X148757500Y-105942500D01*
X147637500Y-101702500D02*
X147637500Y-101052500D01*
X147637500Y-105942500D02*
X147637500Y-106592500D01*
X148757500Y-101702500D02*
X146517500Y-101702500D01*
X148757500Y-105942500D02*
X148757500Y-101702500D01*
%TO.C,D1*%
X127467500Y-63602500D02*
X127467500Y-67842500D01*
X127467500Y-67002500D02*
X129707500Y-67002500D01*
X127467500Y-67122500D02*
X129707500Y-67122500D01*
X127467500Y-67242500D02*
X129707500Y-67242500D01*
X127467500Y-67842500D02*
X129707500Y-67842500D01*
X128587500Y-63602500D02*
X128587500Y-62952500D01*
X128587500Y-67842500D02*
X128587500Y-68492500D01*
X129707500Y-63602500D02*
X127467500Y-63602500D01*
X129707500Y-67842500D02*
X129707500Y-63602500D01*
%TO.C,D19*%
X165567500Y-139802500D02*
X165567500Y-144042500D01*
X165567500Y-143202500D02*
X167807500Y-143202500D01*
X165567500Y-143322500D02*
X167807500Y-143322500D01*
X165567500Y-143442500D02*
X167807500Y-143442500D01*
X165567500Y-144042500D02*
X167807500Y-144042500D01*
X166687500Y-139802500D02*
X166687500Y-139152500D01*
X166687500Y-144042500D02*
X166687500Y-144692500D01*
X167807500Y-139802500D02*
X165567500Y-139802500D01*
X167807500Y-144042500D02*
X167807500Y-139802500D01*
%TO.C,D13*%
X127467500Y-120752500D02*
X127467500Y-124992500D01*
X127467500Y-124152500D02*
X129707500Y-124152500D01*
X127467500Y-124272500D02*
X129707500Y-124272500D01*
X127467500Y-124392500D02*
X129707500Y-124392500D01*
X127467500Y-124992500D02*
X129707500Y-124992500D01*
X128587500Y-120752500D02*
X128587500Y-120102500D01*
X128587500Y-124992500D02*
X128587500Y-125642500D01*
X129707500Y-120752500D02*
X127467500Y-120752500D01*
X129707500Y-124992500D02*
X129707500Y-120752500D01*
%TO.C,D18*%
X146517500Y-139802500D02*
X146517500Y-144042500D01*
X146517500Y-143202500D02*
X148757500Y-143202500D01*
X146517500Y-143322500D02*
X148757500Y-143322500D01*
X146517500Y-143442500D02*
X148757500Y-143442500D01*
X146517500Y-144042500D02*
X148757500Y-144042500D01*
X147637500Y-139802500D02*
X147637500Y-139152500D01*
X147637500Y-144042500D02*
X147637500Y-144692500D01*
X148757500Y-139802500D02*
X146517500Y-139802500D01*
X148757500Y-144042500D02*
X148757500Y-139802500D01*
%TO.C,D2*%
X146517500Y-63602500D02*
X146517500Y-67842500D01*
X146517500Y-67002500D02*
X148757500Y-67002500D01*
X146517500Y-67122500D02*
X148757500Y-67122500D01*
X146517500Y-67242500D02*
X148757500Y-67242500D01*
X146517500Y-67842500D02*
X148757500Y-67842500D01*
X147637500Y-63602500D02*
X147637500Y-62952500D01*
X147637500Y-67842500D02*
X147637500Y-68492500D01*
X148757500Y-63602500D02*
X146517500Y-63602500D01*
X148757500Y-67842500D02*
X148757500Y-63602500D01*
%TO.C,D11*%
X165567500Y-101702500D02*
X165567500Y-105942500D01*
X165567500Y-105102500D02*
X167807500Y-105102500D01*
X165567500Y-105222500D02*
X167807500Y-105222500D01*
X165567500Y-105342500D02*
X167807500Y-105342500D01*
X165567500Y-105942500D02*
X167807500Y-105942500D01*
X166687500Y-101702500D02*
X166687500Y-101052500D01*
X166687500Y-105942500D02*
X166687500Y-106592500D01*
X167807500Y-101702500D02*
X165567500Y-101702500D01*
X167807500Y-105942500D02*
X167807500Y-101702500D01*
%TO.C,D3*%
X165567500Y-63602500D02*
X165567500Y-67842500D01*
X165567500Y-67002500D02*
X167807500Y-67002500D01*
X165567500Y-67122500D02*
X167807500Y-67122500D01*
X165567500Y-67242500D02*
X167807500Y-67242500D01*
X165567500Y-67842500D02*
X167807500Y-67842500D01*
X166687500Y-63602500D02*
X166687500Y-62952500D01*
X166687500Y-67842500D02*
X166687500Y-68492500D01*
X167807500Y-63602500D02*
X165567500Y-63602500D01*
X167807500Y-67842500D02*
X167807500Y-63602500D01*
%TO.C,D17*%
X127467500Y-139802500D02*
X127467500Y-144042500D01*
X127467500Y-143202500D02*
X129707500Y-143202500D01*
X127467500Y-143322500D02*
X129707500Y-143322500D01*
X127467500Y-143442500D02*
X129707500Y-143442500D01*
X127467500Y-144042500D02*
X129707500Y-144042500D01*
X128587500Y-139802500D02*
X128587500Y-139152500D01*
X128587500Y-144042500D02*
X128587500Y-144692500D01*
X129707500Y-139802500D02*
X127467500Y-139802500D01*
X129707500Y-144042500D02*
X129707500Y-139802500D01*
%TO.C,D16*%
X184617500Y-120752500D02*
X184617500Y-124992500D01*
X184617500Y-124152500D02*
X186857500Y-124152500D01*
X184617500Y-124272500D02*
X186857500Y-124272500D01*
X184617500Y-124392500D02*
X186857500Y-124392500D01*
X184617500Y-124992500D02*
X186857500Y-124992500D01*
X185737500Y-120752500D02*
X185737500Y-120102500D01*
X185737500Y-124992500D02*
X185737500Y-125642500D01*
X186857500Y-120752500D02*
X184617500Y-120752500D01*
X186857500Y-124992500D02*
X186857500Y-120752500D01*
%TO.C,D9*%
X127467500Y-101702500D02*
X127467500Y-105942500D01*
X127467500Y-105102500D02*
X129707500Y-105102500D01*
X127467500Y-105222500D02*
X129707500Y-105222500D01*
X127467500Y-105342500D02*
X129707500Y-105342500D01*
X127467500Y-105942500D02*
X129707500Y-105942500D01*
X128587500Y-101702500D02*
X128587500Y-101052500D01*
X128587500Y-105942500D02*
X128587500Y-106592500D01*
X129707500Y-101702500D02*
X127467500Y-101702500D01*
X129707500Y-105942500D02*
X129707500Y-101702500D01*
%TO.C,D12*%
X184617500Y-101702500D02*
X184617500Y-105942500D01*
X184617500Y-105102500D02*
X186857500Y-105102500D01*
X184617500Y-105222500D02*
X186857500Y-105222500D01*
X184617500Y-105342500D02*
X186857500Y-105342500D01*
X184617500Y-105942500D02*
X186857500Y-105942500D01*
X185737500Y-101702500D02*
X185737500Y-101052500D01*
X185737500Y-105942500D02*
X185737500Y-106592500D01*
X186857500Y-101702500D02*
X184617500Y-101702500D01*
X186857500Y-105942500D02*
X186857500Y-101702500D01*
%TO.C,D6*%
X146517500Y-82652500D02*
X146517500Y-86892500D01*
X146517500Y-86052500D02*
X148757500Y-86052500D01*
X146517500Y-86172500D02*
X148757500Y-86172500D01*
X146517500Y-86292500D02*
X148757500Y-86292500D01*
X146517500Y-86892500D02*
X148757500Y-86892500D01*
X147637500Y-82652500D02*
X147637500Y-82002500D01*
X147637500Y-86892500D02*
X147637500Y-87542500D01*
X148757500Y-82652500D02*
X146517500Y-82652500D01*
X148757500Y-86892500D02*
X148757500Y-82652500D01*
%TO.C,D7*%
X165567500Y-82652500D02*
X165567500Y-86892500D01*
X165567500Y-86052500D02*
X167807500Y-86052500D01*
X165567500Y-86172500D02*
X167807500Y-86172500D01*
X165567500Y-86292500D02*
X167807500Y-86292500D01*
X165567500Y-86892500D02*
X167807500Y-86892500D01*
X166687500Y-82652500D02*
X166687500Y-82002500D01*
X166687500Y-86892500D02*
X166687500Y-87542500D01*
X167807500Y-82652500D02*
X165567500Y-82652500D01*
X167807500Y-86892500D02*
X167807500Y-82652500D01*
%TO.C,D14*%
X146517500Y-120752500D02*
X146517500Y-124992500D01*
X146517500Y-124152500D02*
X148757500Y-124152500D01*
X146517500Y-124272500D02*
X148757500Y-124272500D01*
X146517500Y-124392500D02*
X148757500Y-124392500D01*
X146517500Y-124992500D02*
X148757500Y-124992500D01*
X147637500Y-120752500D02*
X147637500Y-120102500D01*
X147637500Y-124992500D02*
X147637500Y-125642500D01*
X148757500Y-120752500D02*
X146517500Y-120752500D01*
X148757500Y-124992500D02*
X148757500Y-120752500D01*
%TO.C,D20*%
X184617500Y-139802500D02*
X184617500Y-144042500D01*
X184617500Y-143202500D02*
X186857500Y-143202500D01*
X184617500Y-143322500D02*
X186857500Y-143322500D01*
X184617500Y-143442500D02*
X186857500Y-143442500D01*
X184617500Y-144042500D02*
X186857500Y-144042500D01*
X185737500Y-139802500D02*
X185737500Y-139152500D01*
X185737500Y-144042500D02*
X185737500Y-144692500D01*
X186857500Y-139802500D02*
X184617500Y-139802500D01*
X186857500Y-144042500D02*
X186857500Y-139802500D01*
%TO.C,D4*%
X184617500Y-63602500D02*
X184617500Y-67842500D01*
X184617500Y-67002500D02*
X186857500Y-67002500D01*
X184617500Y-67122500D02*
X186857500Y-67122500D01*
X184617500Y-67242500D02*
X186857500Y-67242500D01*
X184617500Y-67842500D02*
X186857500Y-67842500D01*
X185737500Y-63602500D02*
X185737500Y-62952500D01*
X185737500Y-67842500D02*
X185737500Y-68492500D01*
X186857500Y-63602500D02*
X184617500Y-63602500D01*
X186857500Y-67842500D02*
X186857500Y-63602500D01*
%TO.C,D8*%
X184617500Y-82652500D02*
X184617500Y-86892500D01*
X184617500Y-86052500D02*
X186857500Y-86052500D01*
X184617500Y-86172500D02*
X186857500Y-86172500D01*
X184617500Y-86292500D02*
X186857500Y-86292500D01*
X184617500Y-86892500D02*
X186857500Y-86892500D01*
X185737500Y-82652500D02*
X185737500Y-82002500D01*
X185737500Y-86892500D02*
X185737500Y-87542500D01*
X186857500Y-82652500D02*
X184617500Y-82652500D01*
X186857500Y-86892500D02*
X186857500Y-82652500D01*
%TO.C,D15*%
X165567500Y-120752500D02*
X165567500Y-124992500D01*
X165567500Y-124152500D02*
X167807500Y-124152500D01*
X165567500Y-124272500D02*
X167807500Y-124272500D01*
X165567500Y-124392500D02*
X167807500Y-124392500D01*
X165567500Y-124992500D02*
X167807500Y-124992500D01*
X166687500Y-120752500D02*
X166687500Y-120102500D01*
X166687500Y-124992500D02*
X166687500Y-125642500D01*
X167807500Y-120752500D02*
X165567500Y-120752500D01*
X167807500Y-124992500D02*
X167807500Y-120752500D01*
%TO.C,D5*%
X127467500Y-82652500D02*
X127467500Y-86892500D01*
X127467500Y-86052500D02*
X129707500Y-86052500D01*
X127467500Y-86172500D02*
X129707500Y-86172500D01*
X127467500Y-86292500D02*
X129707500Y-86292500D01*
X127467500Y-86892500D02*
X129707500Y-86892500D01*
X128587500Y-82652500D02*
X128587500Y-82002500D01*
X128587500Y-86892500D02*
X128587500Y-87542500D01*
X129707500Y-82652500D02*
X127467500Y-82652500D01*
X129707500Y-86892500D02*
X129707500Y-82652500D01*
%TD*%
M02*
